<svg xmlns="http://www.w3.org/2000/svg"
        viewBox="0 0 483.94 437.3">
    <defs>
        <style>
            .cls-1{fill:#ffac66;}.cls-1,.cls-2,.cls-3,.cls-4,.cls-5{stroke:#000;stroke-miterlimit:10;stroke-width:10px;}.cls-2{fill:#ef9a9a;}.cls-3{fill:#e0e5dc;}.cls-4{fill:#f7ddba;}.cls-6{opacity:0.1;}
        </style>
    </defs>
    <rect
            class="cls-1"
            x="32.29"
            y="160.59"
            width="335.79"
            height="55.08"
            rx="4.4"
            transform="translate(-74.37 178.92) rotate(-41.3)" />
    <rect
            class="cls-1"
            x="68.9"
            y="202.26"
            width="335.79"
            height="55.08"
            transform="translate(-92.77 213.44) rotate(-41.3)" />
    <path
            class="cls-1"
            d="M412.84,185.1l-22.72,20L237.92,338.77l-68.13,59.86a6.15,6.15,0,0,1-8.66-.56l-28.25-32.16a6.13,6.13,0,0,1,.56-8.66L347.2,169.46l0,0,6.38-5.61,22.89-20.11.13-.1a6.13,6.13,0,0,1,7.58-.21,5.92,5.92,0,0,1,.94.87l28.26,32.16a6.24,6.24,0,0,1,.74,1.05A6.15,6.15,0,0,1,412.84,185.1Z" />
    <path
            class="cls-2"
            d="M461.18,142.12l-23,20.17-21.13,18.56-2.95-3.36L384.2,143.41l-3.2-3.64-8.44-9.6L344.65,98.39l-2.46-2.8L310.25,59.24,308,56.72l21.12-18.56,23-20.17a52.21,52.21,0,0,1,73.68,4.76l9.27,10.55,30.86,35.13A52.21,52.21,0,0,1,461.18,142.12Z" />
    <path
            class="cls-3"
            d="M435.07,186.1l-21.23,18.66a18.23,18.23,0,0,1-23.72.3,17.13,17.13,0,0,1-2-2L353.6,163.83,352,162l-34.76-39.56-.25-.3L282.25,82.61a18,18,0,0,1-1.48-1.93,18.24,18.24,0,0,1,3.14-23.81l21.24-18.66a18.23,18.23,0,0,1,24-.05,17.55,17.55,0,0,1,1.73,1.72l57.62,65.58,48.23,54.9a18,18,0,0,1,1.48,1.93A18.24,18.24,0,0,1,435.07,186.1Z" />
    <polygon
            class="cls-4"
            points="7.51 430.7 32.35 357.31 57.19 283.92 108.33 342.13 159.47 400.33 83.49 415.51 7.51 430.7" />
    <polygon
            class="cls-5"
            points="8.23 430.07 15.21 409.46 22.18 388.85 36.54 405.19 50.9 421.54 29.57 425.8 8.23 430.07" />
    <path
            class="cls-6"
            d="M461.18,142.12l-23,20.17a18.24,18.24,0,0,1-3.15,23.81l-21.23,18.66a18.23,18.23,0,0,1-23.72.3L237.92,338.77,347.2,169.46l0,0L352,162l20.55-31.85.08-.12,15.87-24.59L435.08,33.3l30.86,35.13A52.21,52.21,0,0,1,461.18,142.12Z" />
</svg>