<svg xmlns="http://www.w3.org/2000/svg" viewBox="0 0 1080 1080"><defs><style>.cls-1{fill:#fff;}.cls-2{fill:#bbdefb;}.cls-3{fill:#ffac66;}.cls-3,.cls-4,.cls-5,.cls-6,.cls-7{stroke:#000;stroke-miterlimit:10;stroke-width:10px;}.cls-4{fill:#ef9a9a;}.cls-5{fill:#e0e5dc;}.cls-6{fill:#f7ddba;}.cls-8{opacity:0.1;}</style></defs><g id="Layer_1" data-name="Layer 1"><rect class="cls-1" width="1080" height="1080"/><circle class="cls-2" cx="540" cy="538" r="388"/></g><g id="Layer_2" data-name="Layer 2"><rect class="cls-3" x="329.07" y="482.75" width="335.79" height="55.08" rx="4.4" transform="translate(-213.18 452.93) rotate(-41.3)"/><rect class="cls-3" x="365.67" y="524.41" width="335.79" height="55.08" transform="translate(-231.57 487.45) rotate(-41.3)"/><path class="cls-3" d="M709.62,507.25l-22.72,20L534.7,660.92l-68.13,59.86a6.15,6.15,0,0,1-8.66-.56l-28.25-32.16a6.13,6.13,0,0,1,.56-8.66L644,491.61l0,0,6.38-5.61,22.89-20.11.13-.1a6.13,6.13,0,0,1,7.58-.21,5.92,5.92,0,0,1,.94.87l28.26,32.16a6.24,6.24,0,0,1,.74,1.05A6.15,6.15,0,0,1,709.62,507.25Z" transform="translate(0 -2)"/><path class="cls-4" d="M758,464.27l-23,20.17L713.87,503l-3-3.36L681,465.56l-3.2-3.64-8.44-9.6-27.91-31.78-2.46-2.8L607,381.39l-2.21-2.52,21.12-18.56,23-20.17a52.21,52.21,0,0,1,73.68,4.76l9.27,10.55,30.86,35.13A52.21,52.21,0,0,1,758,464.27Z" transform="translate(0 -2)"/><path class="cls-5" d="M731.85,508.25l-21.23,18.66a18.23,18.23,0,0,1-23.72.3,17.13,17.13,0,0,1-2-2L650.38,486l-1.59-1.81L614,444.61l-.25-.3L579,404.76a18,18,0,0,1-1.48-1.93A18.24,18.24,0,0,1,580.69,379l21.24-18.66a18.23,18.23,0,0,1,24-.05,17.55,17.55,0,0,1,1.73,1.72l57.62,65.58,48.23,54.9a18,18,0,0,1,1.48,1.93A18.24,18.24,0,0,1,731.85,508.25Z" transform="translate(0 -2)"/><polygon class="cls-6" points="304.29 750.85 329.13 677.46 353.97 604.07 405.11 662.28 456.24 720.49 380.26 735.67 304.29 750.85"/><polygon class="cls-7" points="305.01 750.22 311.98 729.61 318.96 709 333.32 725.35 347.68 741.69 326.34 745.96 305.01 750.22"/><path class="cls-8" d="M758,464.27l-23,20.17a18.24,18.24,0,0,1-3.15,23.81l-21.23,18.66a18.23,18.23,0,0,1-23.72.3L534.7,660.92,644,491.61l0,0,4.79-7.42,20.55-31.85.08-.12,15.87-24.59,46.57-72.16,30.86,35.13A52.21,52.21,0,0,1,758,464.27Z" transform="translate(0 -2)"/></g></svg>